# xmcd
#
# Track frame offsets:
# 150
# 17222
# 29045
# 42452
# 62932
# 76132
# 91765
# 105712
# 118807
# 132467
# 151082
# 166810
# 180700
# 191697
# 208997
# 223125
# 235205
# 252770
# 267545
# 283147
#
# Disc length: 3943 seconds
#
#
# Revision: 0
# Processed by: cddbd v1.5.1PL2 Copyright (c) Steve Scherf et al.
# Submitted via: FreeRIP 2.942 
#
DISCID=2e0f6514
DTITLE=Sydney Devine - Sydney`s Dance Party
DYEAR=1900
DGENRE=Easy Listening
TTITLE0=Po Kare Kare Ana
TTITLE1=Tiny Bubbles
TTITLE2=Have A Drink On Me
TTITLE3=Elvis Is A Long Time Gone
TTITLE4=It`s Now Or Never
TTITLE5=Sweet Caroline
TTITLE6=Ten Guitars
TTITLE7=Beautiful Sunday
TTITLE8=Crystal Chandeliers
TTITLE9=Chattahoochee
TTITLE10=Achy Breaky Heart
TTITLE11=Blanket On The Ground
TTITLE12=May The Bird Of Paradise Fly Up Your Nose
TTITLE13=Elvira
TTITLE14=Macarena
TTITLE15=The Hucklebuck
TTITLE16=Don`t Fence Me In,Sioux City Sue,You Are My...
TTITLE17=Pearly Shells
TTITLE18=Faded Love
TTITLE19=Mexicali Rose
EXTD=
EXTT0=
EXTT1=
EXTT2=
EXTT3=
EXTT4=
EXTT5=
EXTT6=
EXTT7=
EXTT8=
EXTT9=
EXTT10=
EXTT11=
EXTT12=
EXTT13=
EXTT14=
EXTT15=
EXTT16=
EXTT17=
EXTT18=
EXTT19=
PLAYORDER=
